HIERARCHY
ROOT root
{
	OFFSET 0.000000 0.000000 0.000000
	CHANNELS 6 Xposition Yposition Zposition Zrotation Yrotation Xrotation
	JOINT lhip
	{
		OFFSET 0.058581 -0.082280 -0.017664
		CHANNELS 3 Zrotation Yrotation Xrotation
		JOINT lknee
		{
			OFFSET 0.043451 -0.386469 0.008037
			CHANNELS 3 Zrotation Yrotation Xrotation
			JOINT lankle
			{
				OFFSET -0.014790 -0.426874 -0.037428
				CHANNELS 3 Zrotation Yrotation Xrotation
				JOINT ltoe
				{
					OFFSET 0.041054 -0.060286 0.122042
					CHANNELS 3 Zrotation Yrotation Xrotation
					End Site
					{
						OFFSET 0.000000 0.000000 0.000000
					}
				}
			}
		}
	}
	JOINT rhip
	{
		OFFSET -0.060310 -0.090513 -0.013543
		CHANNELS 3 Zrotation Yrotation Xrotation
		JOINT rknee
		{
			OFFSET -0.043257 -0.383688 -0.004843
			CHANNELS 3 Zrotation Yrotation Xrotation
			JOINT rankle
			{
				OFFSET 0.019056 -0.420046 -0.034562
				CHANNELS 3 Zrotation Yrotation Xrotation
				JOINT rtoe
				{
					OFFSET -0.034840 -0.062106 0.130323
					CHANNELS 3 Zrotation Yrotation Xrotation
					End Site
					{
						OFFSET 0.000000 0.000000 0.000000
					}
				}
			}
		}
	}
	JOINT lowerback
	{
		OFFSET 0.004439 0.124404 -0.038385
		CHANNELS 3 Zrotation Yrotation Xrotation
		JOINT upperback
		{
			OFFSET 0.004488 0.137956 0.026820
			CHANNELS 3 Zrotation Yrotation Xrotation
			JOINT chest
			{
				OFFSET -0.002265 0.056032 0.002855
				CHANNELS 3 Zrotation Yrotation Xrotation
				JOINT lowerneck
				{
					OFFSET -0.013390 0.211636 -0.033468
					CHANNELS 3 Zrotation Yrotation Xrotation
					JOINT upperneck
					{
						OFFSET 0.010113 0.088937 0.050410
						CHANNELS 3 Zrotation Yrotation Xrotation
						End Site
						{
							OFFSET 0.000000 0.000000 0.000000
						}
					}
				}
				JOINT lclavicle
				{
					OFFSET 0.071702 0.114000 -0.018898
					CHANNELS 3 Zrotation Yrotation Xrotation
					JOINT lshoulder
					{
						OFFSET 0.122921 0.045205 -0.019046
						CHANNELS 3 Zrotation Yrotation Xrotation
						JOINT lelbow
						{
							OFFSET 0.255332 -0.015649 -0.022946
							CHANNELS 3 Zrotation Yrotation Xrotation
							JOINT lwrist
							{
								OFFSET 0.265709 0.012698 -0.007375
								CHANNELS 3 Zrotation Yrotation Xrotation
								End Site
								{
									OFFSET 0.000000 0.000000 0.000000
								}
							}
						}
					}
				}
				JOINT rclavicle
				{
					OFFSET -0.082954 0.112472 -0.023707
					CHANNELS 3 Zrotation Yrotation Xrotation
					JOINT rshoulder
					{
						OFFSET -0.113228 0.046853 -0.008472
						CHANNELS 3 Zrotation Yrotation Xrotation
						JOINT relbow
						{
							OFFSET -0.260127 -0.014369 -0.031269
							CHANNELS 3 Zrotation Yrotation Xrotation
							JOINT rwrist
							{
								OFFSET -0.269108 0.006794 -0.006027
								CHANNELS 3 Zrotation Yrotation Xrotation
								End Site
								{
									OFFSET 0.000000 0.000000 0.000000
								}
							}
						}
					}
				}
			}
		}
	}
}
MOTION
Frames: 17
Frame Time: 0.033333
-0.049745 -0.580672 0.785634 -87.998412 7.004075 97.827141 17.964501 23.093382 -53.555126 -14.063764 21.557350 74.680673 2.328447 -3.618969 -28.239902 0.000000 -0.000000 0.000000 -19.751294 -19.741863 -45.916098 -4.300582 -14.930678 79.942663 2.451134 -11.962641 -19.032585 0.000000 -0.000000 0.000000 1.287516 3.252915 53.142502 1.232985 0.498242 -7.645043 4.073051 -0.493251 -0.116442 5.746049 -1.681719 -22.541077 9.005605 1.176511 -20.269617 -21.192592 -3.785872 0.804260 -17.574931 6.521057 -11.705629 79.429945 -62.897629 -76.698362 36.165368 -6.027738 -20.382846 14.686503 8.465686 -6.427256 22.150563 8.238757 -15.193830 -69.836087 41.281844 -80.616892 -32.597880 12.698508 -13.022135 
-0.066584 -0.498452 0.752433 -89.100224 8.853132 97.664080 22.035980 24.528113 -53.276192 -6.666704 19.354064 75.903640 4.995540 5.786941 -40.592284 0.000000 -0.000000 0.000000 -25.774254 -23.327620 -44.627607 -7.586855 -12.563482 63.705001 3.478687 -15.941972 -16.185940 0.000000 -0.000000 0.000000 3.899244 1.720890 55.139325 0.571468 1.687695 -9.835286 4.918109 -0.173904 0.356507 5.439171 -3.591400 -24.604286 9.091447 4.207985 -20.870551 -23.509783 -3.015062 2.585246 -21.829424 4.821971 -14.252954 79.214486 -64.514332 -74.283180 38.237687 -4.471206 -22.409511 14.525999 8.580522 -3.691791 22.832892 7.663715 -16.466329 -74.267397 43.589530 -82.837237 -34.587959 13.935863 -11.851750 
-0.081895 -0.425580 0.732264 -90.948651 6.653777 94.393471 28.708767 27.430043 -49.831590 -8.488477 17.245434 78.545648 -1.623079 1.573233 -33.467870 0.000000 -0.000000 0.000000 -31.436304 -27.996525 -43.132371 -7.652892 -13.090734 54.416941 5.088801 -13.538916 -13.621921 0.000000 -0.000000 0.000000 3.720942 2.956428 59.062924 0.531181 0.342501 -7.821815 6.040982 -1.234117 -1.748869 4.533057 -2.231814 -25.501700 8.368382 5.252340 -22.436898 -25.723519 -4.657389 3.995929 -21.974249 5.871900 -15.089388 68.770024 -62.648745 -66.054346 39.139336 -3.945005 -24.054347 15.342928 10.612237 -3.213162 19.976270 8.481930 -17.308946 -76.447678 45.871328 -85.849556 -36.134599 12.313789 -12.616504 
-0.095865 -0.350088 0.712672 -93.372151 4.795156 93.579023 32.936288 30.219901 -44.170019 -10.034171 12.792628 75.555471 -2.889104 -1.187168 -36.279500 0.000000 -0.000000 0.000000 -32.520711 -32.637972 -47.088310 -7.161842 -16.348128 54.714416 4.821681 -12.616319 -14.527942 0.000000 -0.000000 0.000000 3.757751 -0.476675 58.220091 -1.252727 0.959526 -7.097844 4.685686 -1.084208 -2.416108 3.214198 -3.149125 -26.611561 7.461125 4.767520 -19.874751 -26.413776 -5.196780 4.845858 -25.280087 6.194730 -15.605994 49.707019 -58.471504 -48.567034 40.465928 -3.920101 -23.794503 13.776410 12.702706 -2.259222 17.874457 10.174592 -18.613085 -75.991672 47.461466 -85.511864 -35.966936 13.587519 -12.172715 
-0.112280 -0.265423 0.702324 -97.059558 1.595471 92.290011 38.596299 31.479844 -36.662583 -11.932224 8.283019 72.518744 -9.722307 -5.365628 -27.712057 0.000000 -0.000000 0.000000 -30.591830 -33.956785 -53.317165 -6.423372 -14.717476 63.586496 4.539317 -8.683508 -8.289405 0.000000 -0.000000 0.000000 2.606939 -3.447038 56.916086 -3.885180 2.107173 -6.477961 2.750343 -0.719440 -2.847936 0.780564 -2.555083 -23.337713 5.935343 8.509199 -19.811796 -30.243534 -5.211858 4.471258 -26.929784 8.188153 -14.156800 46.388700 -54.773216 -49.298199 39.951200 -1.392277 -25.155331 14.219838 15.426913 -3.189421 11.578412 12.024465 -19.021189 -72.145090 48.916292 -83.651485 -38.065084 15.307332 -10.342463 
-0.131689 -0.178320 0.707938 -99.431994 -1.713873 89.758533 41.113600 28.182981 -26.307439 -13.281480 2.111448 63.146315 -13.763920 -0.567179 -20.957180 0.000000 -0.000000 0.000000 -31.882593 -32.799864 -54.704836 -5.817444 -14.665009 73.549123 4.029358 -9.309584 -7.430767 0.000000 -0.000000 0.000000 3.629448 -6.619515 57.635972 -6.673599 2.407806 -6.991560 0.241956 -1.055064 -3.535699 -4.245385 -6.860361 -18.783532 5.326081 12.971458 -19.279363 -35.126650 -5.181875 2.886208 -27.880249 11.538204 -13.750014 51.509854 -55.119104 -57.390217 39.538801 -1.222515 -24.853819 13.439662 20.272695 0.858077 4.832557 8.944817 -24.290408 -69.133486 51.193076 -85.545793 -38.712482 16.101934 -8.340920 
-0.149986 -0.084703 0.721508 -101.110918 -4.918023 88.860691 41.908997 21.838653 -17.755328 -9.857832 -2.265752 51.486380 -17.926057 3.611129 -7.347732 0.000000 -0.000000 0.000000 -30.908247 -32.985782 -55.092139 -5.438168 -16.284334 82.092618 0.190279 -7.726747 -17.082494 0.000000 -0.000000 0.000000 3.129453 -8.529840 52.463552 -8.998509 3.781669 -3.434553 -3.020426 -0.906642 -2.542961 -6.177720 -4.093015 -16.800551 2.869177 10.468824 -16.957202 -35.315543 -2.896507 0.745234 -27.644652 10.339830 -10.932000 55.405041 -55.782423 -59.550526 36.566605 -1.665721 -26.503528 13.030875 19.689608 0.484049 2.911746 11.982303 -24.774003 -65.827918 50.912100 -82.311027 -40.236009 17.213981 -6.837470 
-0.164409 0.018576 0.740378 -101.378815 -7.038464 90.073608 40.064659 17.189727 -15.196767 -6.706834 -4.598120 41.165753 -13.332074 10.153264 0.805848 0.000000 -0.000000 0.000000 -28.696216 -31.834581 -53.469921 -6.265983 -19.996264 87.886432 -1.662864 -9.146822 -26.676461 0.000000 -0.000000 0.000000 1.813750 -6.525240 46.607332 -9.636121 3.779197 -2.855464 -3.984294 -1.051675 -1.417347 -5.862904 -3.188672 -11.763161 2.695016 8.667153 -14.801306 -32.910309 -1.447401 -0.536844 -25.654194 9.958397 -8.529869 56.599115 -57.201030 -61.287933 35.543386 -0.818957 -27.090526 12.655043 18.262552 -0.401807 6.394350 12.587750 -22.301392 -66.386579 50.540519 -81.769459 -40.688026 18.326225 -5.035906 
-0.173278 0.123542 0.760491 -99.451074 -7.649492 91.727485 37.206047 17.858439 -20.987704 -5.640729 1.092666 41.607323 -6.505687 11.914384 -6.043279 0.000000 -0.000000 0.000000 -23.224362 -31.323417 -51.222636 -5.439968 -22.951702 90.095420 -3.564042 -12.526221 -32.791471 0.000000 -0.000000 0.000000 0.459121 -4.244991 42.737013 -9.680511 2.055447 -3.838460 -3.689048 -0.809627 1.253638 -3.978860 -2.753872 -11.236249 5.794555 6.401206 -12.111909 -29.544852 -2.408636 -2.949417 -22.332572 9.050483 -7.725470 58.459574 -57.805596 -65.600601 35.575325 -1.674161 -25.262671 13.062341 16.025429 -2.001367 9.969806 10.510968 -18.638068 -70.393750 48.893227 -85.181967 -38.468987 18.062848 -6.022372 
-0.177477 0.227836 0.784900 -96.679895 -6.733399 92.002739 33.180027 19.094737 -29.958433 -6.304112 8.391988 51.684604 -8.110958 8.422283 -8.788571 0.000000 -0.000000 0.000000 -18.558803 -29.827189 -48.710725 -6.673584 -25.338640 94.458460 -0.695756 -7.383735 -27.937469 0.000000 -0.000000 0.000000 -1.454783 -0.850914 44.328501 -7.074532 0.152280 -5.004167 -2.292898 -1.364589 0.234130 -2.267165 -1.335350 -8.894174 7.456595 2.993973 -12.405151 -27.273278 -4.120754 -2.455134 -19.174251 7.229240 -8.234514 60.103257 -56.375680 -66.042301 34.175689 -3.241854 -23.465956 14.860052 13.035563 -4.509697 10.685675 8.830214 -17.421390 -69.907208 49.203025 -81.578811 -37.717264 15.409716 -8.374768 
-0.182255 0.328630 0.806340 -95.149059 -4.508912 91.919800 28.060120 21.449377 -38.644890 -7.251114 15.179208 64.471306 -7.509541 5.971332 -11.272410 0.000000 -0.000000 0.000000 -15.948303 -27.204160 -46.934302 -5.734383 -27.208706 97.116344 5.589020 0.930773 -11.858729 0.000000 -0.000000 0.000000 -1.984348 1.389141 47.392041 -4.991283 -2.076029 -6.420543 -1.407065 -1.735604 -0.776599 -1.664583 -2.904788 -7.130301 10.454501 5.596355 -14.014218 -25.049387 -6.505239 -3.312870 -15.704113 9.321843 -9.391220 59.754765 -56.151977 -68.105844 33.655580 -6.445602 -19.161283 11.804021 12.869649 -4.377248 17.801089 6.755694 -19.217058 -70.265069 48.423479 -83.592180 -35.821800 16.022998 -7.621562 
-0.188167 0.424622 0.816094 -93.964883 -0.585406 92.361276 23.347702 23.736300 -46.416571 -6.611306 22.172500 76.766212 -6.653707 2.971134 -12.832029 0.000000 -0.000000 0.000000 -13.445484 -24.019589 -45.996417 -4.672617 -29.334104 97.711047 7.734241 3.938878 -4.912298 0.000000 -0.000000 0.000000 -2.397987 1.717007 47.786528 -2.311660 -1.973120 -5.769707 -0.070391 -0.826593 0.046842 1.652832 1.529081 -10.965768 9.384178 2.159000 -14.106189 -25.103939 -6.421603 -3.770454 -13.128442 6.785717 -8.753973 59.950969 -53.765006 -69.703965 32.186865 -8.377804 -17.213382 17.950156 10.489489 -6.922217 12.018873 9.480663 -15.710243 -68.438391 47.046721 -81.013562 -35.238225 14.077796 -11.632158 
-0.196504 0.518645 0.817477 -93.167527 3.012128 92.443577 18.204597 24.460713 -50.791657 -9.789447 25.492645 82.239135 -8.594929 -3.416841 -11.695272 0.000000 -0.000000 0.000000 -12.140822 -21.486422 -45.266507 -6.919849 -26.028445 96.593328 2.235822 -5.308467 -10.111369 0.000000 -0.000000 0.000000 -0.903065 1.858662 49.411189 -0.778652 -2.292080 -7.474580 1.137539 -0.738181 0.623973 2.475886 0.113950 -12.582865 10.076323 3.218998 -13.164643 -24.610522 -7.112871 -4.091380 -13.528517 7.075728 -10.085203 59.355712 -53.826973 -68.884134 32.409085 -8.939086 -16.626269 18.546705 10.783696 -6.787414 14.358202 8.140890 -15.009895 -70.001532 47.554912 -80.910905 -33.271177 13.806675 -12.266652 
-0.206991 0.608710 0.811231 -93.180229 6.074451 90.975412 15.047051 23.822463 -48.752106 -14.977561 22.817819 78.350967 -11.978595 -10.085654 -8.116760 0.000000 -0.000000 0.000000 -14.806525 -18.602408 -42.745338 -7.572646 -19.562332 90.259367 -0.100443 -7.333676 -14.070743 0.000000 -0.000000 0.000000 0.976334 0.860629 51.268253 -0.118277 -1.504913 -6.517184 1.460191 -0.631366 0.651324 4.079707 0.691516 -14.994013 8.947839 2.314093 -14.147202 -24.411881 -6.924179 -3.653851 -16.018870 4.704739 -11.429054 60.846604 -52.490308 -68.252809 33.373397 -8.375907 -18.095062 17.290433 9.815062 -7.954881 20.160690 9.212724 -12.700108 -73.162914 46.612644 -81.279843 -34.425013 13.409542 -10.858048 
-0.218730 0.694879 0.796985 -94.005113 8.388095 90.228203 15.033602 22.410042 -43.660697 -11.165476 18.301153 72.819583 7.674110 7.028263 -32.332287 0.000000 -0.000000 0.000000 -19.121235 -17.405061 -41.388636 -4.171928 -14.161306 77.890145 0.315017 -14.013003 -16.330921 0.000000 -0.000000 0.000000 1.457054 -0.396280 51.993818 0.054715 0.081541 -7.875260 2.727734 -0.611409 2.802550 5.607261 -2.298749 -19.313671 8.125465 4.349429 -12.585555 -25.979218 -5.594500 -1.877919 -18.004090 1.555501 -14.338224 60.315245 -53.581328 -66.243238 35.893426 -6.851186 -19.474117 17.963868 9.310112 -6.623999 21.350374 9.669655 -10.794030 -75.051131 45.533017 -82.428169 -32.793817 14.311078 -10.094571 
-0.228817 0.779818 0.783184 -94.227373 9.502416 90.825900 21.602432 21.050984 -43.288191 -9.607073 14.292102 72.926548 5.048832 6.725801 -37.149834 0.000000 -0.000000 0.000000 -23.480067 -19.210997 -40.144229 -4.945910 -11.969053 62.447140 2.040119 -15.770653 -14.921234 0.000000 -0.000000 0.000000 2.313038 -0.745079 51.604240 0.819934 -0.099325 -8.281233 3.696321 -1.067469 2.397428 4.600662 -1.422241 -19.549060 9.038638 6.198649 -13.196765 -26.309877 -4.301801 0.727836 -21.986600 -0.146719 -15.176189 60.053268 -54.063777 -63.978829 36.498302 -4.267058 -23.101199 18.627943 8.543604 -4.711379 21.684480 10.407036 -10.929635 -75.227104 46.647152 -81.773139 -32.680927 13.744940 -9.770371 
-0.241922 0.867995 0.778750 -94.842307 6.194965 88.988684 26.971987 22.070846 -38.871857 -11.668065 11.592373 71.740025 -0.976434 1.927565 -32.628430 0.000000 -0.000000 0.000000 -30.150488 -23.918778 -36.448505 -4.302097 -12.869702 49.289482 5.173514 -11.914235 -13.365212 0.000000 -0.000000 0.000000 2.116889 0.833826 52.124623 0.772725 -1.929645 -6.019418 3.754638 -2.190131 0.759337 3.489404 -0.479843 -20.041813 8.668954 4.269266 -13.595712 -27.466639 -5.468234 2.155806 -21.963047 -0.699218 -14.863813 53.983462 -53.134395 -59.191023 37.177997 -3.777375 -23.851031 20.487892 8.938870 -4.264138 20.550561 9.679273 -10.812107 -76.829665 48.007148 -83.465745 -33.185431 13.335656 -9.208435 
